# Blender v2.80 (sub 75) OBJ File: ''
# www.blender.org
mtllib test2.mtl
o Cube
v 0.369712 0.369712 -1.000000
v 0.369712 1.000000 -0.369712
v 1.000000 0.369712 -0.369712
v 0.369712 -1.000000 -0.369712
v 0.369712 -0.369712 -1.000000
v 1.000000 -0.369712 -0.369712
v 1.000000 0.369712 0.369712
v 0.369712 1.000000 0.369712
v 0.369712 0.369712 1.000000
v 1.000000 -0.369712 0.369712
v 0.369712 -0.369712 1.000000
v 0.369712 -1.000000 0.369712
v -0.369712 0.369712 -1.000000
v -1.000000 0.369712 -0.369712
v -0.369712 1.000000 -0.369712
v -1.000000 -0.369712 -0.369712
v -0.369712 -0.369712 -1.000000
v -0.369712 -1.000000 -0.369712
v -1.000000 0.369712 0.369712
v -0.369712 0.369712 1.000000
v -0.369712 1.000000 0.369712
v -0.369712 -1.000000 0.369712
v -0.369712 -0.369712 1.000000
v -1.000000 -0.369712 0.369712
v 2.104356 0.369712 -0.369712
v 2.104356 -0.369712 -0.369712
v 2.104356 0.369712 0.369712
v 2.104356 -0.369712 0.369712
v 3.590823 0.369712 -0.369712
v 3.590823 -0.369712 -0.369712
v 3.590823 0.369712 0.369712
v 3.590823 -0.369712 0.369712
v 4.558280 0.369712 -0.369712
v 4.558280 -0.369712 -0.369712
v 4.558280 0.369712 0.369712
v 4.558280 -0.369712 0.369712
v 4.772390 0.369712 -0.369712
v 4.772390 -0.369712 -0.369712
v 4.772390 0.369712 0.369712
v 4.772390 -0.369712 0.369712
v 4.558280 0.369712 1.567173
v 4.558280 -0.369712 1.567173
v 4.772390 0.369712 1.567173
v 4.772390 -0.369712 1.567173
v 4.558280 0.369712 -1.454865
v 4.558280 -0.369712 -1.454865
v 4.772390 0.369712 -1.454865
v 4.772390 -0.369712 -1.454865
v 2.104356 0.369712 4.207438
v 2.104356 -0.369712 4.207438
v 3.590823 0.369712 4.207438
v 3.590823 -0.369712 4.207438
vt 0.546214 0.828786
vt 0.453786 0.921214
vt 0.453786 0.828786
vt 0.546214 0.578786
vt 0.453786 0.671214
vt 0.453786 0.578786
vt 0.375000 0.921214
vt 0.375000 0.828786
vt 0.546214 0.328786
vt 0.453786 0.421214
vt 0.453786 0.328786
vt 0.546214 0.078786
vt 0.453786 0.171214
vt 0.453786 0.078786
vt 0.296214 0.578786
vt 0.203786 0.578786
vt 0.203786 0.578786
vt 0.796214 0.671214
vt 0.875000 0.671214
vt 0.796214 0.750000
vt 0.546214 0.750000
vt 0.625000 0.828786
vt 0.296214 0.671214
vt 0.375000 0.671214
vt 0.296214 0.750000
vt 0.203786 0.671214
vt 0.203786 0.750000
vt 0.125000 0.671214
vt 0.796214 0.578786
vt 0.796214 0.500000
vt 0.875000 0.578786
vt 0.453786 0.750000
vt 0.375000 0.671214
vt 0.546214 0.500000
vt 0.625000 0.578786
vt 0.453786 1.000000
vt 0.296214 0.500000
vt 0.546214 0.421214
vt 0.546214 0.250000
vt 0.703786 0.578786
vt 0.546214 0.171214
vt 0.453786 0.250000
vt 0.375000 0.078786
vt 0.546214 0.921214
vt 0.625000 0.171214
vt 0.546214 0.000000
vt 0.625000 0.921214
vt 0.703786 0.671214
vt 0.203786 0.500000
vt 0.453786 0.250000
vt 0.703786 0.500000
vt 0.546214 0.250000
vt 0.375000 0.171214
vt 0.546214 1.000000
vt 0.625000 0.078786
vt 0.453786 0.000000
vt 0.546214 0.671214
vt 0.625000 0.921214
vt 0.296214 0.578786
vt 0.203786 0.578786
vt 0.375000 0.171214
vt 0.375000 0.078786
vt 0.375000 0.078786
vt 0.546214 0.250000
vt 0.453786 0.250000
vt 0.546214 0.250000
vt 0.546214 0.250000
vt 0.625000 0.828786
vt 0.625000 0.921214
vt 0.625000 0.921214
vt 0.625000 0.828786
vt 0.375000 0.171214
vt 0.375000 0.171214
vt 0.203786 0.578786
vt 0.296214 0.578786
vt 0.296214 0.578786
vt 0.375000 0.171214
vt 0.375000 0.078786
vt 0.375000 0.078786
vt 0.296214 0.578786
vt 0.203786 0.578786
vt 0.203786 0.671214
vt 0.296214 0.671214
vt 0.625000 0.828786
vt 0.625000 0.921214
vt 0.375000 0.171214
vt 0.375000 0.171214
vt 0.453786 0.250000
vt 0.546214 0.250000
vt 0.546214 0.250000
vt 0.625000 0.921214
vt 0.203786 0.671214
vt 0.453786 0.250000
vt 0.296214 0.578786
vt 0.203786 0.578786
vt 0.203786 0.578786
vt 0.375000 0.078786
vt 0.296214 0.578786
vt 0.625000 0.828786
vt 0.625000 0.828786
vt 0.453786 0.250000
vt 0.546214 0.250000
vt 0.546214 0.250000
vt 0.625000 0.921214
vt 0.453786 0.250000
vt 0.453786 0.250000
vt 0.375000 0.171214
vt 0.375000 0.171214
vt 0.453786 0.250000
vt 0.625000 0.921214
vt 0.296214 0.671214
vt 0.375000 0.078786
vt 0.625000 0.828786
vt 0.625000 0.921214
vn 0.0000 -1.0000 0.0000
vn -1.0000 0.0000 0.0000
vn -0.7071 -0.7071 0.0000
vn 0.0000 0.0000 1.0000
vn 0.0000 1.0000 0.0000
vn 0.0000 0.0000 -1.0000
vn 0.5774 0.5774 -0.5774
vn 0.5774 -0.5774 -0.5774
vn 0.5774 0.5774 0.5774
vn 0.5774 -0.5774 0.5774
vn -0.5774 0.5774 -0.5774
vn -0.5774 -0.5774 -0.5774
vn -0.5774 0.5774 0.5774
vn -0.5774 -0.5774 0.5774
vn 0.0000 -0.7071 -0.7071
vn 0.7071 0.0000 -0.7071
vn -0.7071 0.0000 0.7071
vn 0.7071 0.0000 0.7071
vn -0.7071 0.0000 -0.7071
vn 0.0000 0.7071 0.7071
vn 0.7071 0.7071 0.0000
vn 0.0000 -0.7071 0.7071
vn -0.7071 0.7071 0.0000
vn 0.0000 0.7071 -0.7071
vn 0.7071 -0.7071 0.0000
vn 1.0000 0.0000 0.0000
usemtl Material
s off
f 4/1/1 22/2/1 18/3/1
f 19/4/2 16/5/2 24/6/2
f 22/2/3 24/7/3 16/8/3
f 9/9/4 23/10/4 11/11/4
f 15/12/5 8/13/5 2/14/5
f 3/15/6 26/16/6 6/17/6
f 1/18/7 2/19/7 3/20/7
f 4/1/8 5/21/8 6/22/8
f 7/23/9 8/24/9 9/25/9
f 10/26/10 11/27/10 12/28/10
f 13/29/11 14/30/11 15/31/11
f 16/5/12 17/32/12 18/33/12
f 19/4/13 20/34/13 21/35/13
f 22/2/14 23/36/14 24/7/14
f 22/2/3 16/8/3 18/3/3
f 18/3/15 5/21/15 4/1/15
f 6/17/16 1/37/16 3/15/16
f 20/38/17 24/6/17 23/10/17
f 11/11/18 7/39/18 9/9/18
f 17/40/19 14/30/19 13/29/19
f 21/41/20 9/42/20 8/13/20
f 8/13/21 3/43/21 2/14/21
f 12/44/22 23/36/22 22/2/22
f 15/12/23 19/45/23 21/41/23
f 2/14/24 13/46/24 15/12/24
f 4/1/25 10/47/25 12/44/25
f 13/29/6 5/48/6 17/40/6
f 18/3/15 17/32/15 5/21/15
f 6/17/16 5/49/16 1/37/16
f 20/38/17 19/4/17 24/6/17
f 11/11/18 10/50/18 7/39/18
f 17/40/19 16/51/19 14/30/19
f 21/41/20 20/52/20 9/42/20
f 8/13/21 7/53/21 3/43/21
f 12/44/22 11/54/22 23/36/22
f 15/12/23 14/55/23 19/45/23
f 2/14/24 1/56/24 13/46/24
f 4/1/25 6/22/25 10/47/25
f 4/1/1 12/44/1 22/2/1
f 19/4/2 14/57/2 16/5/2
f 9/9/4 20/38/4 23/10/4
f 15/12/5 21/41/5 8/13/5
f 6/22/1 28/58/1 10/47/1
f 13/29/6 1/18/6 5/48/6
f 25/59/6 30/60/6 26/16/6
f 27/61/5 29/62/5 25/63/5
f 7/53/5 25/63/5 3/43/5
f 10/50/4 27/64/4 7/39/4
f 32/65/4 35/66/4 31/67/4
f 30/68/1 36/69/1 32/70/1
f 26/71/1 32/70/1 28/58/1
f 27/61/5 51/72/5 31/73/5
f 38/74/26 47/75/26 37/76/26
f 35/77/5 37/78/5 33/79/5
f 31/73/5 33/79/5 29/62/5
f 29/80/6 34/81/6 30/60/6
f 37/76/26 40/82/26 38/74/26
f 37/76/26 39/83/26 40/82/26
f 34/84/1 40/85/1 36/69/1
f 35/77/5 43/86/5 39/87/5
f 42/88/4 43/89/4 41/90/4
f 40/85/1 42/91/1 36/69/1
f 39/83/26 44/92/26 40/82/26
f 36/93/2 41/90/2 35/66/2
f 45/94/6 48/95/6 46/96/6
f 37/78/5 45/97/5 33/79/5
f 33/98/2 46/96/2 34/81/2
f 34/84/1 48/99/1 38/100/1
f 50/101/4 51/102/4 49/103/4
f 32/70/1 50/104/1 28/58/1
f 31/67/26 52/105/26 32/65/26
f 28/106/2 49/103/2 27/64/2
f 3/15/6 25/59/6 26/16/6
f 6/22/1 26/71/1 28/58/1
f 25/59/6 29/80/6 30/60/6
f 27/61/5 31/73/5 29/62/5
f 7/53/5 27/61/5 25/63/5
f 10/50/4 28/106/4 27/64/4
f 32/65/4 36/93/4 35/66/4
f 30/68/1 34/84/1 36/69/1
f 26/71/1 30/68/1 32/70/1
f 27/61/5 49/107/5 51/72/5
f 38/74/26 48/95/26 47/75/26
f 35/77/5 39/87/5 37/78/5
f 31/73/5 35/77/5 33/79/5
f 29/80/6 33/98/6 34/81/6
f 34/84/1 38/100/1 40/85/1
f 35/77/5 41/108/5 43/86/5
f 42/88/4 44/109/4 43/89/4
f 40/85/1 44/110/1 42/91/1
f 39/83/26 43/111/26 44/92/26
f 36/93/2 42/88/2 41/90/2
f 45/94/6 47/75/6 48/95/6
f 37/78/5 47/112/5 45/97/5
f 33/98/2 45/94/2 46/96/2
f 34/84/1 46/113/1 48/99/1
f 50/101/4 52/105/4 51/102/4
f 32/70/1 52/114/1 50/104/1
f 31/67/26 51/102/26 52/105/26
f 28/106/2 50/101/2 49/103/2
